<svg width="614" height="189" viewBox="0 0 614 189" fill="none" xmlns="http://www.w3.org/2000/svg">
<path fill-rule="evenodd" clip-rule="evenodd" d="M225.3 57.8V140.3H255.1V154.5H209.4V57.8C209.5 57.8 225.3 57.8 225.3 57.8ZM311.3 98.8V90.1H326.4V154.5H311.3V145.8C309.3 149 306.4 151.6 302.7 153.4C299 155.2 295.2 156.2 291.4 156.2C286.5 156.2 282 155.3 278 153.5C274.1 151.8 270.5 149.3 267.6 146.1C264.7 143 262.4 139.3 260.8 135.3C259.2 131.2 258.3 126.8 258.4 122.3C258.4 117.8 259.2 113.5 260.8 109.4C262.4 105.4 264.7 101.7 267.6 98.6C270.5 95.4 274.1 92.9 278 91.2C282.1 89.4 286.5 88.5 291.4 88.5C295.2 88.5 298.9 89.4 302.7 91.3C306.5 93.2 309.3 95.6 311.3 98.8ZM309.9 130.2C310.8 127.7 311.3 125 311.3 122.3C311.3 119.5 310.8 116.9 309.9 114.4C309 112 307.7 109.8 306 107.9C304.3 106 302.3 104.5 300 103.5C297.7 102.4 295 101.8 292.2 101.8C289.3 101.8 286.8 102.4 284.5 103.5C282.2 104.6 280.2 106.1 278.6 107.9C276.9 109.8 275.6 112 274.8 114.4C273.9 116.9 273.5 119.6 273.5 122.3C273.5 125.1 273.9 127.7 274.8 130.2C275.7 132.7 276.9 134.9 278.6 136.7C280.3 138.6 282.3 140.1 284.5 141.1C286.8 142.2 289.4 142.8 292.2 142.8C295.1 142.8 297.7 142.2 300 141.1C302.3 140 304.3 138.5 306 136.7C307.7 134.8 309 132.6 309.9 130.2ZM338.2 154.5V90.1H379.1V104.9H353.3V154.5H338.2ZM433.7 98.8V90.1H448.8V154.5H433.7V145.8C431.7 149 428.8 151.6 425.1 153.4C421.4 155.2 417.6 156.2 413.8 156.2C408.9 156.2 404.5 155.3 400.4 153.5C396.5 151.8 392.9 149.3 390 146.1C387.1 143 384.8 139.3 383.2 135.3C381.6 131.2 380.7 126.8 380.8 122.3C380.8 117.8 381.6 113.5 383.2 109.4C384.8 105.4 387 101.7 390 98.6C392.9 95.4 396.5 92.9 400.4 91.2C404.5 89.4 408.9 88.5 413.8 88.5C417.6 88.5 421.3 89.4 425.1 91.3C428.8 93.1 431.7 95.6 433.7 98.8ZM432.3 130.2C433.2 127.7 433.7 125 433.7 122.3C433.7 119.5 433.2 116.9 432.3 114.4C431.4 112 430.1 109.8 428.4 107.9C426.7 106 424.7 104.5 422.4 103.5C420.1 102.4 417.4 101.8 414.6 101.8C411.7 101.8 409.2 102.4 406.9 103.5C404.6 104.6 402.6 106.1 401 107.9C399.3 109.8 398 112 397.2 114.4C396.3 116.9 395.9 119.6 395.9 122.3C395.9 125.1 396.3 127.7 397.2 130.2C398.1 132.7 399.3 134.9 401 136.7C402.7 138.6 404.7 140.1 406.9 141.1C409.2 142.2 411.8 142.8 414.6 142.8C417.5 142.8 420.1 142.2 422.4 141.1C424.7 140 426.7 138.5 428.4 136.7C430.2 134.8 431.5 132.6 432.3 130.2ZM509.2 90.1H524.5L499.8 154.5H480.9L456 90.1H471.3L490.2 139.4L509.2 90.1ZM557.3 88.5C577.8 88.5 591.8 106.7 589.2 127.9H539.2C539.2 133.5 544.8 144.2 558.1 144.2C569.6 144.2 577.2 134.1 577.2 134.1L587.4 142C578.3 151.7 570.9 156.2 559.2 156.2C538.4 156.2 524.2 143 524.2 122.3C524.2 103.6 538.8 88.5 557.3 88.5ZM539.2 116.7H575.3C575.2 115.5 573.2 100.4 557.1 100.4C541.1 100.4 539.3 115.5 539.2 116.7ZM598.9 154.5V57.8H614V154.5H598.9Z" fill="#FF2D20"/>
<path fill-rule="evenodd" clip-rule="evenodd" d="M182.9 42.5C183 42.8 183 43 183 43.3V83.7C183 84.8 182.4 85.7 181.5 86.3L147.6 105.8V144.5C147.6 145.6 147 146.5 146.1 147.1L75.4 187.8C75.2 187.9 75.1 188 74.9 188C74.8 188 74.8 188.1 74.7 188.1C74.2 188.2 73.7 188.2 73.2 188.1C73.1 188.1 73 188 73 188C72.8 187.9 72.7 187.9 72.5 187.8L1.79999 147.1C0.899988 146.6 0.299988 145.6 0.299988 144.5V23.3C0.299988 23 0.299986 22.8 0.399986 22.5C0.399986 22.4 0.499985 22.3 0.499985 22.3C0.599985 22.1 0.599982 22 0.699982 21.8C0.799982 21.7 0.799986 21.6 0.899986 21.5C0.999986 21.4 1.09998 21.3 1.19998 21.2C1.29998 21.1 1.39998 21.1 1.49998 21C1.59998 20.9 1.69999 20.8 1.79999 20.7L37.1 0.399994C38 -0.100006 39.1 -0.100006 40 0.399994L75.3 20.7C75.4 20.8 75.5 20.9 75.6 21C75.7 21.1 75.8 21.1 75.9 21.2C76 21.3 76.1 21.4 76.2 21.5C76.3 21.6 76.3 21.7 76.4 21.8C76.5 21.9 76.5 22.1 76.6 22.3C76.6 22.4 76.7 22.5 76.7 22.6C76.8 22.9 76.8 23.1 76.8 23.4V99L106.3 82V43.3C106.3 43 106.3 42.8 106.4 42.5C106.4 42.4 106.5 42.3 106.5 42.2C106.6 42 106.6 41.9 106.7 41.7C106.8 41.6 106.8 41.5 106.9 41.4C107 41.3 107.1 41.2 107.2 41.1C107.3 41 107.4 41 107.5 40.9C107.6 40.8 107.7 40.7 107.8 40.6L143.1 20.3C144 19.8 145.1 19.8 146 20.3L181.3 40.6C181.4 40.7 181.5 40.8 181.6 40.9C181.7 41 181.8 41 181.9 41.1C182 41.2 182.1 41.3 182.2 41.4C182.3 41.5 182.3 41.6 182.4 41.7C182.5 41.8 182.5 42 182.6 42.2C182.9 42.4 182.9 42.4 182.9 42.5ZM177.1 81.9V48.3L164.7 55.4L147.6 65.2V98.8L177.1 81.9ZM141.8 142.7V109.1L125 118.7L77 146.1V180L141.8 142.7ZM6.29999 28.4V142.7L71.1 180V146.1L37.2 126.9C37.1 126.8 37 126.7 36.9 126.7C36.8 126.6 36.7 126.6 36.6 126.5C36.5 126.4 36.4 126.3 36.4 126.2C36.3 126.1 36.2 126 36.2 125.9C36.1 125.8 36.1 125.7 36 125.5C36 125.4 35.9 125.3 35.9 125.2C35.9 125.1 35.9 124.9 35.8 124.8C35.8 124.7 35.8 124.6 35.8 124.5V45.5L18.7 35.7L6.29999 28.4ZM38.7 6.3L9.29999 23.3L38.7 40.3L68.1 23.3L38.7 6.3ZM54 112.1L71.1 102.3V28.4L58.7 35.5L41.6 45.3V119.2C41.7 119.3 54 112.1 54 112.1ZM144.7 26.3L115.3 43.3L144.7 60.3L174.1 43.3C174.2 43.3 144.7 26.3 144.7 26.3ZM141.8 65.4L124.7 55.6L112.3 48.5V82.1L129.4 91.9L141.8 99C141.8 98.9 141.8 65.4 141.8 65.4ZM74 141L117.2 116.3L138.8 104L109.4 87.1L75.5 106.6L44.6 124.4C44.7 124.3 74 141 74 141Z" fill="#FF2D20"/>
</svg>
