<svg width="512" height="104" viewBox="0 0 512 104" fill="none" xmlns="http://www.w3.org/2000/svg">
<path fill-rule="evenodd" clip-rule="evenodd" d="M157.301 0H16.101C7.20101 0 -0.0989847 7.3 0.00101531 16.2V70.1C0.00101531 79 7.20101 86.3 16.201 86.3H83.001L113.601 103.3L106.701 86.3H157.301C166.201 86.3 173.501 79.1 173.501 70.1V16.2C173.401 7.2 166.201 0 157.301 0ZM13.101 12.5C11.101 12.6 9.60101 13.4 8.60101 14.7C7.60101 16 7.30102 17.6 7.50102 19.5C11.701 46.1 15.601 64 19.201 73.3C20.601 76.7 22.201 78.3 24.201 78.2C27.201 78 30.701 73.9 34.901 65.9C37.101 61.4 40.501 54.6 45.101 45.5C48.901 58.9 54.201 69 60.801 75.7C62.601 77.6 64.601 78.5 66.401 78.3C68.001 78.2 69.301 77.3 70.201 75.7C70.901 74.4 71.201 72.8 71.101 71C70.701 64.5 71.301 55.5 73.101 44C74.901 32.1 77.201 23.5 80.001 18.4C80.601 17.3 80.801 16.3 80.701 15C80.601 13.4 79.801 12 78.501 11C77.201 10 75.701 9.40001 74.001 9.60001C71.901 9.70001 70.401 10.7 69.301 12.7C64.901 20.7 61.801 33.7 59.901 51.7C57.201 44.9 54.901 36.9 53.201 27.5C52.401 23.3 50.501 21.3 47.401 21.5C45.301 21.6 43.501 23.1 42.101 25.8L26.601 55.4C24.001 45.1 21.601 32.6 19.401 17.7C18.801 13.9 16.701 12.2 13.101 12.5ZM149.801 17.6C154.801 18.7 158.601 21.4 161.101 25.8C163.401 29.6 164.501 34.2 164.501 39.8C164.501 47.1 162.701 53.8 159.001 59.9C154.701 67 149.201 70.5 142.301 70.5C141.101 70.5 139.801 70.4 138.501 70.1C133.501 69 129.701 66.3 127.201 61.9C124.901 58 123.801 53.3 123.801 47.9C123.801 40.6 125.601 33.9 129.301 27.9C133.601 20.8 139.201 17.3 146.001 17.3C147.101 17.2 148.401 17.3 149.801 17.6ZM146.801 55.9C149.401 53.6 151.201 50.1 152.201 45.4C152.501 43.8 152.701 42 152.701 40.2C152.701 38.1 152.301 35.9 151.401 33.7C150.301 30.9 148.901 29.4 147.201 29.1C144.601 28.6 142.201 30 139.801 33.5C137.901 36.2 136.701 39 136.001 41.9C135.601 43.5 135.501 45.3 135.501 47.1C135.501 49.2 135.901 51.4 136.801 53.6C137.901 56.4 139.301 57.9 141.001 58.2C142.801 58.6 144.701 57.8 146.801 55.9ZM116.601 25.8C114.001 21.3 110.201 18.6 105.301 17.6C104.001 17.3 102.701 17.2 101.501 17.2C94.701 17.2 89.201 20.7 84.801 27.8C81.101 33.8 79.301 40.5 79.301 47.8C79.301 53.3 80.401 57.9 82.701 61.8C85.301 66.3 89.001 69 94.001 70C95.301 70.3 96.601 70.4 97.801 70.4C104.701 70.4 110.201 66.9 114.501 59.8C118.201 53.7 120.001 47 120.001 39.7C120.001 34.2 118.901 29.6 116.601 25.8ZM107.701 45.4C106.701 50.1 104.901 53.6 102.301 55.9C100.201 57.7 98.301 58.5 96.601 58.2C94.901 57.8 93.501 56.4 92.401 53.6C91.501 51.4 91.101 49.2 91.101 47.1C91.101 45.3 91.201 43.6 91.601 41.9C92.201 39 93.401 36.2 95.401 33.5C97.701 30 100.201 28.6 102.801 29.1C104.501 29.5 105.901 30.9 107.001 33.7C107.901 35.9 108.301 38.1 108.301 40.2C108.201 42 108.101 43.8 107.701 45.4Z" fill="#7F54B3"/>
<path fill-rule="evenodd" clip-rule="evenodd" d="M191.401 25.2C186.601 29.9 184.301 35.8 184.301 43.1C184.301 50.8 186.601 57.1 191.301 61.9C196.001 66.7 202.101 69.1 209.701 69.1C211.901 69.1 214.401 68.7 217.101 68V56.5C214.601 57.2 212.501 57.6 210.601 57.6C206.801 57.6 203.901 56.3 201.601 53.8C199.301 51.2 198.201 47.8 198.201 43.5C198.201 39.5 199.301 36.1 201.501 33.6C203.801 31 206.501 29.7 209.901 29.7C212.101 29.7 214.401 30.1 217.001 30.8V19.3C214.701 18.7 212.001 18.4 209.301 18.4C202.101 18.2 196.101 20.5 191.401 25.2ZM240.601 18.2C234.101 18.2 229.001 20.4 225.301 24.7C221.601 29 219.801 35.1 219.801 42.9C219.801 51.3 221.601 57.8 225.301 62.3C228.901 66.8 234.201 69 241.201 69C247.901 69 253.101 66.7 256.701 62.3C260.301 57.8 262.201 51.5 262.201 43.4C262.201 35.3 260.401 29.1 256.701 24.7C252.801 20.3 247.501 18.2 240.601 18.2ZM246.201 55C244.901 57 243.001 58 240.601 58C238.301 58 236.601 57 235.401 55C234.201 53 233.601 49 233.601 43C233.601 33.7 235.901 29.1 240.701 29.1C245.701 29.1 248.201 33.8 248.201 43.2C248.201 49.1 247.501 53 246.201 55ZM297.201 19.5L294.601 30.3C294.001 33.1 293.301 35.9 292.801 38.8L291.401 46.3C290.101 38.8 288.201 29.9 285.901 19.4H269.501L263.301 67.7H275.601L278.901 34.4L287.301 67.7H296.101L304.201 34.5L307.701 67.7H320.601L314.101 19.4H297.201V19.5ZM356.201 19.5L353.601 30.3C353.001 33.1 352.301 35.9 351.801 38.8L350.401 46.3C349.101 38.8 347.201 29.9 344.901 19.4H328.501L322.301 67.7H334.601L337.901 34.4L346.301 67.7H355.101L363.101 34.5L366.601 67.7H379.501L373.001 19.4H356.201V19.5ZM396.401 48.7H408.001V38.7H396.401V29.8H409.701V19.5H383.301V67.8H409.701V57.5H396.301V48.7H396.401ZM446.501 41.1C447.801 38.9 448.601 36.6 448.601 34.3C448.601 29.8 446.801 26.1 443.301 23.5C439.801 20.9 434.901 19.5 428.801 19.5H413.601V67.8H426.601V45.8H426.801L437.401 67.8H451.201L440.701 46C443.201 44.9 445.101 43.3 446.501 41.1ZM426.501 40.3V28.8C429.601 28.9 431.801 29.4 433.201 30.4C434.501 31.4 435.201 33 435.201 35.2C435.101 38.5 432.201 40.2 426.501 40.3ZM456.201 25.2C451.501 29.9 449.101 35.8 449.101 43.1C449.101 50.8 451.401 57.1 456.101 61.9C460.801 66.7 466.901 69.1 474.501 69.1C476.701 69.1 479.201 68.7 481.901 68V56.5C479.401 57.2 477.301 57.6 475.401 57.6C471.601 57.6 468.701 56.3 466.401 53.8C464.101 51.2 463.001 47.8 463.001 43.5C463.001 39.5 464.101 36.1 466.301 33.6C468.601 31 471.301 29.7 474.701 29.7C476.901 29.7 479.201 30.1 481.801 30.8V19.3C479.501 18.7 476.801 18.4 474.101 18.4C467.001 18.2 461.001 20.5 456.201 25.2ZM498.501 57.4V48.6H510.101V38.6H498.501V29.7H511.901V19.4H485.501V67.7H512.001V57.4H498.501Z" fill="black"/>
</svg>
